<svg width="172" height="24" viewBox="0 0 172 24" fill="none" xmlns="http://www.w3.org/2000/svg">
<path d="M13.2921 6.54523e-06C10.904 -0.000127304 8.84635 -0.000242625 7.19861 0.22129C5.43273 0.458706 3.74003 0.994101 2.36707 2.36707C0.994101 3.74003 0.458706 5.43273 0.22129 7.19861C-0.000242625 8.84635 -0.000127304 10.904 6.54523e-06 13.292L1.32253e-05 18.8571H5.14286L5.14286 24L10.7079 24C13.096 24.0001 15.1537 24.0002 16.8014 23.7787C18.5673 23.5413 20.26 23.0059 21.6329 21.6329C23.0059 20.26 23.5413 18.5673 23.7787 16.8014C24.0002 15.1537 24.0001 13.0961 24 10.708L24 5.14286H18.8571V10.7755C18.8571 13.3915 18.8514 15.0825 18.6839 16.3284C18.5268 17.4968 18.2732 17.8631 18.0681 18.0681C17.8631 18.2732 17.4968 18.5268 16.3284 18.6839C15.0825 18.8514 13.3915 18.8571 10.7755 18.8571H5.14286V13.2245C5.14286 10.6085 5.14858 8.91754 5.31609 7.67161C5.47318 6.50317 5.72681 6.13694 5.93188 5.93188C6.13694 5.72681 6.50317 5.47318 7.67161 5.31609C8.91754 5.14858 10.6085 5.14286 13.2245 5.14286L18.8571 5.14286V1.32248e-05L13.2921 6.54523e-06Z" fill="url(#paint0_linear_355_461)"/>
<path d="M81.0436 22.503V1.20001H83.4513V8.65755H83.6086C84.6367 7.13237 86.1946 6.37473 88.2823 6.38464C90.0448 6.38464 91.5345 6.9541 92.7515 8.09304C93.9684 9.22207 94.5769 10.7819 94.5769 12.7726V22.503H92.1535V12.7726C92.1535 11.4356 91.7653 10.3907 90.989 9.63802C90.2232 8.88534 89.216 8.50899 87.9676 8.50899C86.6982 8.50899 85.6281 8.9299 84.7574 9.77172C83.8866 10.6135 83.4513 11.6138 83.4513 12.7726V22.503H81.0436Z" fill="white"/>
<path d="M70.5629 22.8C68.2444 22.8 66.3717 22.082 64.945 20.6459C63.5287 19.2099 62.8206 17.1945 62.8206 14.5997C62.8206 11.995 63.5287 9.97464 64.945 8.53859C66.3613 7.10254 68.2339 6.38452 70.5629 6.38452C72.1995 6.38452 73.621 6.76582 74.8275 7.52841C76.0444 8.28109 76.9309 9.37051 77.4869 10.7967H74.9061C73.941 9.27147 72.4932 8.50888 70.5629 8.50888C68.9683 8.50888 67.6831 9.04368 66.7075 10.1133C65.7318 11.173 65.244 12.6685 65.244 14.5997C65.244 16.521 65.7318 18.0165 66.7075 19.0861C67.6831 20.1458 68.9683 20.6757 70.5629 20.6757C72.4932 20.6757 73.941 19.918 74.9061 18.4027H77.4869C76.9309 19.819 76.0444 20.9084 74.8275 21.671C73.621 22.4237 72.1995 22.8 70.5629 22.8Z" fill="white"/>
<path d="M52.5291 22.8C50.2106 22.8 48.338 22.082 46.9112 20.6459C45.4949 19.2099 44.7868 17.1945 44.7868 14.5997C44.7868 11.995 45.4897 9.97464 46.8955 8.53859C48.3013 7.10254 50.1215 6.38452 52.356 6.38452C53.5835 6.38452 54.6955 6.61231 55.6922 7.06788C56.6993 7.52345 57.5019 8.11768 58.0998 8.85056C58.6978 9.57354 59.1542 10.351 59.4689 11.1829C59.7836 12.0148 59.941 12.8467 59.941 13.6786L59.7679 15.1939H47.2102C47.2941 16.9568 47.8239 18.3136 48.7996 19.2644C49.7753 20.2052 51.0184 20.6757 52.5291 20.6757C54.4595 20.6757 55.9072 19.918 56.8724 18.4027H59.4532C58.8972 19.819 58.0107 20.9084 56.7937 21.671C55.5873 22.4237 54.1657 22.8 52.5291 22.8ZM47.2102 13.2181H57.5176C57.3707 11.7326 56.8252 10.5788 55.881 9.75675C54.9368 8.92484 53.7618 8.50888 52.356 8.50888C50.9607 8.50888 49.791 8.92484 48.8468 9.75675C47.9026 10.5788 47.3571 11.7326 47.2102 13.2181Z" fill="white"/>
<path d="M39.7667 22.503C38.5602 22.503 37.5583 22.1266 36.761 21.374C35.9742 20.6213 35.5808 19.6804 35.5808 18.5514V8.80608H33V6.68172H35.5808L35.9112 2.41815H38.0042V6.68172H42.3475V8.80608H38.0042V18.5514C38.0042 19.0763 38.1825 19.5121 38.5392 19.8587C38.9064 20.2053 39.3733 20.3786 39.9398 20.3786H42.3475V22.503H39.7667Z" fill="white"/>
<path d="M163.235 22.8C161 22.8 159.206 22.2057 157.869 21.0024C156.531 19.814 155.854 18.1353 155.854 15.9664C155.854 13.0398 156.704 10.6629 158.404 8.82081C160.103 6.99356 162.196 6.07251 164.683 6.07251C167.043 6.07251 168.853 6.75587 170.112 8.12259C171.371 9.50417 172 11.1234 172 12.9804C172 13.634 171.874 14.4214 171.622 15.3573H158.923V15.6544C158.923 18.5215 160.497 20.0665 163.565 20.0665C165.218 20.0665 166.587 19.4129 167.657 18.0907H171.009C170.269 19.4872 169.246 20.6162 167.908 21.4927C166.571 22.3692 165.013 22.8 163.235 22.8ZM159.332 12.921H168.916C168.9 11.6582 168.491 10.6629 167.704 9.92012C166.917 9.17734 165.847 8.80595 164.494 8.80595C163.329 8.80595 162.275 9.17734 161.346 9.90527C160.418 10.6332 159.741 11.6434 159.332 12.921Z" fill="url(#paint1_linear_355_461)"/>
<path d="M152.109 22.5029H149.686C148.537 22.5029 147.593 22.1612 146.853 21.4927C146.098 20.8242 145.72 19.9477 145.72 18.8484C145.72 18.5364 145.751 18.2096 145.814 17.8531L147.593 9.11792H144.854L145.437 6.38448H148.175L149.528 2.12091H152.109L151.228 6.38448H155.429L154.847 9.11792H150.645L148.914 17.7936C148.867 17.9719 148.851 18.1353 148.851 18.269C148.851 19.1603 149.434 19.7694 150.425 19.7694H152.644L152.109 22.5029Z" fill="url(#paint2_linear_355_461)"/>
<path d="M133.084 20.2151C134.295 20.2151 135.334 19.8586 136.199 19.1455C137.065 18.4473 137.616 17.5262 137.852 16.3823L138.072 15.3573H132.863C130.849 15.3573 129.637 16.412 129.637 18.0313C129.637 19.4575 130.943 20.2151 133.084 20.2151ZM131.951 22.8C130.471 22.8 129.212 22.384 128.158 21.5521C127.104 20.735 126.569 19.606 126.569 18.1799C126.569 16.6349 127.167 15.3424 128.378 14.3174C129.59 13.2924 131.164 12.7724 133.115 12.7724H138.623L138.686 12.4604C138.749 12.1485 138.78 11.8662 138.78 11.6137C138.78 10.7669 138.45 10.0835 137.789 9.56359C137.112 9.0585 136.247 8.80595 135.177 8.80595C133.65 8.80595 132.533 9.47445 131.793 10.7966H128.504C128.976 9.44474 129.858 8.31571 131.148 7.40952C132.438 6.51818 133.886 6.07251 135.507 6.07251C137.537 6.07251 139.095 6.56275 140.181 7.54322C141.267 8.53855 141.817 9.77157 141.817 11.2423C141.817 11.7325 141.77 12.2228 141.691 12.713L139.693 22.5029H137.112L137.175 20.6756H137.018C136.53 21.255 135.837 21.7601 134.956 22.176C134.059 22.592 133.068 22.8 131.951 22.8Z" fill="url(#paint3_linear_355_461)"/>
<path d="M101.815 22.5029H98.7468L102.067 6.38448H104.491L104.554 8.36028H104.711C105.954 6.83015 107.465 6.07251 109.227 6.07251C110.282 6.07251 111.163 6.33991 111.871 6.85986C112.579 7.39466 113.067 8.04831 113.35 8.80595H113.508C114.971 6.9787 116.844 6.07251 119.157 6.07251C120.746 6.07251 122.052 6.53304 123.044 7.45409C124.035 8.37514 124.539 9.63787 124.539 11.2423C124.539 11.8959 124.492 12.4307 124.397 12.8318L122.43 22.5029H119.377L121.313 13.0695C121.392 12.505 121.439 12.1336 121.439 11.9702C121.439 9.9944 120.196 8.80595 118.307 8.80595C117.363 8.80595 116.513 9.11792 115.742 9.75671C114.971 10.3955 114.452 11.272 114.216 12.3713L112.123 22.5029H109.054L110.99 13.0695C111.068 12.505 111.116 12.1336 111.131 11.9702C111.131 9.9944 109.888 8.80595 108 8.80595C107.071 8.80595 106.222 9.13277 105.419 9.77157C104.616 10.4252 104.097 11.3908 103.845 12.6684L101.815 22.5029Z" fill="url(#paint4_linear_355_461)"/>
<defs>
<linearGradient id="paint0_linear_355_461" x1="1.77105" y1="24.1589" x2="24.8627" y2="0.658293" gradientUnits="userSpaceOnUse">
<stop stop-color="#00F0FF"/>
<stop offset="1" stop-color="#B730F8"/>
</linearGradient>
<linearGradient id="paint1_linear_355_461" x1="96.6539" y1="30.109" x2="167.804" y2="-16.6223" gradientUnits="userSpaceOnUse">
<stop stop-color="#1DB5E1"/>
<stop offset="1" stop-color="#7763EE"/>
</linearGradient>
<linearGradient id="paint2_linear_355_461" x1="96.6537" y1="30.109" x2="167.803" y2="-16.6223" gradientUnits="userSpaceOnUse">
<stop stop-color="#1DB5E1"/>
<stop offset="1" stop-color="#7763EE"/>
</linearGradient>
<linearGradient id="paint3_linear_355_461" x1="96.6537" y1="30.109" x2="167.803" y2="-16.6223" gradientUnits="userSpaceOnUse">
<stop stop-color="#1DB5E1"/>
<stop offset="1" stop-color="#7763EE"/>
</linearGradient>
<linearGradient id="paint4_linear_355_461" x1="96.6538" y1="30.109" x2="167.804" y2="-16.6223" gradientUnits="userSpaceOnUse">
<stop stop-color="#1DB5E1"/>
<stop offset="1" stop-color="#7763EE"/>
</linearGradient>
</defs>
</svg>
