<svg width="696" height="104" viewBox="0 0 696 104" fill="none" xmlns="http://www.w3.org/2000/svg">
<path fill-rule="evenodd" clip-rule="evenodd" d="M57.616 5.65719e-05L56.8574 2.79996e-05L56.8573 2.79975e-05C46.6422 -0.000544547 37.8407 -0.00103784 30.7924 0.946577C23.2388 1.96214 15.9982 4.25231 10.1252 10.1252C4.25231 15.9982 1.96214 23.2388 0.946577 30.7924C-0.00103786 37.8407 -0.000544547 46.6422 2.79976e-05 56.8573L2.79997e-05 56.8574L5.6572e-05 57.616V80.6623H23.0464V57.616C23.0464 46.426 23.0709 39.1928 23.7874 33.8633C24.4594 28.8652 25.5443 27.2987 26.4215 26.4215C27.2987 25.5443 28.8652 24.4594 33.8633 23.7874C39.1928 23.0709 46.426 23.0464 57.616 23.0464H80.6623V5.65719e-05H57.616ZM46.093 103.708L46.8516 103.708H46.8517C57.0668 103.709 65.8683 103.709 72.9166 102.762C80.4702 101.746 87.7108 99.4559 93.5837 93.583C99.4567 87.71 101.747 80.4694 102.762 72.9158C103.71 65.8676 103.71 57.066 103.709 46.8509V46.8508L103.709 46.0922L103.709 23.0459L80.6626 23.0459L80.6626 46.0922C80.6626 57.2822 80.6381 64.5154 79.9215 69.8449C79.2496 74.843 78.1647 76.4095 77.2875 77.2867C76.4103 78.1639 74.8438 79.2488 69.8457 79.9208C64.5162 80.6373 57.2829 80.6618 46.093 80.6618H23.0466L23.0466 103.708H46.093Z" fill="url(#paint0_linear_323_292)"/>
<path d="M326.523 90.9172V-0.000244141H336.303V31.8272H336.943C341.119 25.318 347.447 22.0845 355.928 22.1268C363.087 22.1268 369.139 24.5572 374.082 29.4179C379.026 34.2364 381.497 40.8936 381.497 49.3893V90.9172H371.653V49.3893C371.653 43.6832 370.076 39.224 366.923 36.0117C363.812 32.7993 359.721 31.1932 354.65 31.1932C349.493 31.1932 345.146 32.9896 341.609 36.5823C338.072 40.175 336.303 44.444 336.303 49.3893V90.9172H326.523Z" fill="white"/>
<path d="M283.949 92.1846C274.531 92.1846 266.924 89.1202 261.129 82.9914C255.376 76.8627 252.499 68.2612 252.499 57.1871C252.499 46.0708 255.376 37.4482 261.129 31.3194C266.882 25.1906 274.489 22.1262 283.949 22.1262C290.597 22.1262 296.372 23.7535 301.273 27.0081C306.216 30.2205 309.817 34.8699 312.076 40.9564H301.592C297.672 34.4472 291.791 31.1926 283.949 31.1926C277.472 31.1926 272.251 33.475 268.288 38.0399C264.325 42.5626 262.343 48.945 262.343 57.1871C262.343 65.387 264.325 71.7694 268.288 76.3343C272.251 80.8569 277.472 83.1182 283.949 83.1182C291.791 83.1182 297.672 79.8848 301.592 73.4179H312.076C309.817 79.4621 306.216 84.1115 301.273 87.3661C296.372 90.5785 290.597 92.1846 283.949 92.1846Z" fill="white"/>
<path d="M210.694 92.1846C201.276 92.1846 193.669 89.1202 187.873 82.9914C182.12 76.8627 179.243 68.2612 179.243 57.1871C179.243 46.0708 182.099 37.4482 187.809 31.3194C193.52 25.1906 200.913 22.1262 209.991 22.1262C214.977 22.1262 219.494 23.0984 223.542 25.0427C227.633 26.987 230.894 29.523 233.323 32.6508C235.752 35.7364 237.606 39.0544 238.884 42.6048C240.162 46.1553 240.802 49.7058 240.802 53.2562L240.099 59.7232H189.088C189.429 67.2468 191.581 73.0374 195.544 77.0951C199.507 81.1105 204.557 83.1182 210.694 83.1182C218.535 83.1182 224.416 79.8848 228.337 73.4179H238.82C236.561 79.4621 232.96 84.1115 228.017 87.3661C223.116 90.5785 217.342 92.1846 210.694 92.1846ZM189.088 51.2908H230.957C230.361 44.9507 228.145 40.0265 224.309 36.5183C220.474 32.9678 215.701 31.1926 209.991 31.1926C204.323 31.1926 199.571 32.9678 195.736 36.5183C191.9 40.0265 189.684 44.9507 189.088 51.2908Z" fill="white"/>
<path d="M158.851 90.917C153.95 90.917 149.881 89.3108 146.642 86.0985C143.446 82.8862 141.847 78.8708 141.847 74.0523V32.461H131.364V23.3947H141.847L143.19 5.19849H151.692V23.3947H169.335V32.461H151.692V74.0523C151.692 76.2924 152.416 78.1522 153.865 79.6316C155.357 81.1109 157.253 81.8506 159.554 81.8506H169.335V90.917H158.851Z" fill="white"/>
<path d="M660.394 92.1848C651.317 92.1848 644.03 89.6487 638.596 84.5132C633.163 79.4411 630.414 72.2768 630.414 63.0202C630.414 50.5301 633.866 40.3859 640.77 32.5242C647.673 24.7258 656.175 20.7949 666.275 20.7949C675.864 20.7949 683.215 23.7114 688.329 29.5443C693.443 35.4406 696 42.3514 696 50.2765C696 53.0662 695.488 56.4264 694.465 60.4207H642.879V61.6887C642.879 73.9252 649.271 80.5189 661.737 80.5189C668.449 80.5189 674.01 77.7293 678.357 72.0866H691.972C688.968 78.0463 684.813 82.8648 679.379 86.6055C673.946 90.3461 667.618 92.1848 660.394 92.1848ZM644.541 50.0229H683.471C683.407 44.6338 681.745 40.3859 678.548 37.2159C675.352 34.0458 671.005 32.4608 665.508 32.4608C660.778 32.4608 656.495 34.0458 652.723 37.1525C648.952 40.2591 646.203 44.5704 644.541 50.0229Z" fill="url(#paint1_linear_323_292)"/>
<path d="M615.2 90.9167H605.355C600.689 90.9167 596.854 89.4585 593.849 86.6054C590.781 83.7524 589.247 80.0117 589.247 75.32C589.247 73.9886 589.375 72.5938 589.63 71.0721L596.854 33.7922H585.731L588.096 22.1263H599.219L604.716 3.93018H615.2L611.62 22.1263H628.688L626.322 33.7922H609.255L602.223 70.8185C602.031 71.5793 601.968 72.2768 601.968 72.8474C601.968 76.6514 604.333 79.2509 608.36 79.2509H617.373L615.2 90.9167Z" fill="url(#paint2_linear_323_292)"/>
<path d="M537.916 81.1529C542.838 81.1529 547.057 79.6313 550.573 76.588C554.089 73.6082 556.326 69.6773 557.285 64.7954L558.18 60.4207H537.021C528.839 60.4207 523.917 64.9222 523.917 71.833C523.917 77.9195 529.223 81.1529 537.916 81.1529ZM533.314 92.1848C527.305 92.1848 522.191 90.4095 517.908 86.8591C513.625 83.372 511.452 78.5535 511.452 72.467C511.452 65.8732 513.881 60.3573 518.803 55.9826C523.725 51.6079 530.118 49.3889 538.044 49.3889H560.417L560.673 48.0575C560.929 46.726 561.057 45.5214 561.057 44.4436C561.057 40.8297 559.714 37.9133 557.029 35.6942C554.281 33.5386 550.765 32.4608 546.418 32.4608C540.217 32.4608 535.679 35.3138 532.674 40.9565H519.314C521.232 35.187 524.812 30.3685 530.054 26.501C535.295 22.697 541.176 20.7949 547.76 20.7949C556.007 20.7949 562.335 22.8872 566.746 27.0716C571.156 31.3195 573.394 36.5818 573.394 42.8586C573.394 44.9508 573.202 47.0431 572.882 49.1353L564.764 90.9167H554.281L554.536 83.1184H553.897C551.915 85.591 549.103 87.7467 545.523 89.5219C541.879 91.2971 537.852 92.1848 533.314 92.1848Z" fill="url(#paint3_linear_323_292)"/>
<path d="M410.901 90.9167H398.436L411.924 22.1263H421.768L422.024 30.5587H422.663C427.713 24.0284 433.849 20.7949 441.009 20.7949C445.292 20.7949 448.871 21.9361 451.748 24.1552C454.625 26.4376 456.606 29.2273 457.757 32.4608H458.396C464.341 24.6624 471.948 20.7949 481.345 20.7949C487.801 20.7949 493.106 22.7604 497.134 26.6912C501.161 30.6221 503.206 36.0112 503.206 42.8586C503.206 45.6482 503.015 47.9307 502.631 49.6425L494.641 90.9167H482.239L490.102 50.6569C490.422 48.2477 490.613 46.6626 490.613 45.9652C490.613 37.5329 485.563 32.4608 477.893 32.4608C474.057 32.4608 470.605 33.7922 467.473 36.5184C464.341 39.2447 462.231 42.9854 461.273 47.6771L452.771 90.9167H440.306L448.168 50.6569C448.488 48.2477 448.68 46.6626 448.744 45.9652C448.744 37.5329 443.694 32.4608 436.023 32.4608C432.251 32.4608 428.799 33.8556 425.539 36.5818C422.279 39.3715 420.17 43.4926 419.147 48.9451L410.901 90.9167Z" fill="url(#paint4_linear_323_292)"/>
<defs>
<linearGradient id="paint0_linear_323_292" x1="7.49005" y1="103.708" x2="105.149" y2="4.32041" gradientUnits="userSpaceOnUse">
<stop stop-color="#00F0FF"/>
<stop offset="1" stop-color="#B730F8"/>
</linearGradient>
<linearGradient id="paint1_linear_323_292" x1="389.934" y1="123.378" x2="687.386" y2="-62.5731" gradientUnits="userSpaceOnUse">
<stop stop-color="#1DB5E1"/>
<stop offset="1" stop-color="#7763EE"/>
</linearGradient>
<linearGradient id="paint2_linear_323_292" x1="389.933" y1="123.378" x2="687.386" y2="-62.5731" gradientUnits="userSpaceOnUse">
<stop stop-color="#1DB5E1"/>
<stop offset="1" stop-color="#7763EE"/>
</linearGradient>
<linearGradient id="paint3_linear_323_292" x1="389.933" y1="123.378" x2="687.386" y2="-62.5731" gradientUnits="userSpaceOnUse">
<stop stop-color="#1DB5E1"/>
<stop offset="1" stop-color="#7763EE"/>
</linearGradient>
<linearGradient id="paint4_linear_323_292" x1="389.934" y1="123.378" x2="687.386" y2="-62.5731" gradientUnits="userSpaceOnUse">
<stop stop-color="#1DB5E1"/>
<stop offset="1" stop-color="#7763EE"/>
</linearGradient>
</defs>
</svg>
